<mxfile host="Electron" agent="Mozilla/5.0 (Windows NT 10.0; Win64; x64) AppleWebKit/537.36 (KHTML, like Gecko) draw.io/24.7.17 Chrome/128.0.6613.36 Electron/32.0.1 Safari/537.36" version="24.7.17">
  <diagram id="R2lEEEUBdFMjLlhIrx00" name="Page-1">
    <mxGraphModel dx="1098" dy="828" grid="1" gridSize="10" guides="1" tooltips="1" connect="1" arrows="1" fold="1" page="1" pageScale="1" pageWidth="850" pageHeight="1100" math="0" shadow="0" extFonts="Permanent Marker^https://fonts.googleapis.com/css?family=Permanent+Marker">
      <root>
        <mxCell id="0" />
        <mxCell id="1" parent="0" />
        <mxCell id="0e1y4dWOLma1Uh2noj7M-1" value="REGISTRA" style="rhombus;whiteSpace=wrap;html=1;" vertex="1" parent="1">
          <mxGeometry x="340" y="40" width="160" height="80" as="geometry" />
        </mxCell>
        <mxCell id="0e1y4dWOLma1Uh2noj7M-2" value="CAMARA" style="rounded=0;whiteSpace=wrap;html=1;" vertex="1" parent="1">
          <mxGeometry x="20" y="60" width="170" height="40" as="geometry" />
        </mxCell>
        <mxCell id="0e1y4dWOLma1Uh2noj7M-3" value="REGISTRO" style="rounded=0;whiteSpace=wrap;html=1;" vertex="1" parent="1">
          <mxGeometry x="650" y="60" width="170" height="40" as="geometry" />
        </mxCell>
        <mxCell id="0e1y4dWOLma1Uh2noj7M-4" value="DESCRIPCION" style="ellipse;whiteSpace=wrap;html=1;" vertex="1" parent="1">
          <mxGeometry x="70" y="130" width="120" height="30" as="geometry" />
        </mxCell>
        <mxCell id="0e1y4dWOLma1Uh2noj7M-5" value="UBI" style="ellipse;whiteSpace=wrap;html=1;" vertex="1" parent="1">
          <mxGeometry x="70" y="180" width="120" height="30" as="geometry" />
        </mxCell>
        <mxCell id="0e1y4dWOLma1Uh2noj7M-6" value="IP" style="ellipse;whiteSpace=wrap;html=1;" vertex="1" parent="1">
          <mxGeometry x="70" y="280" width="120" height="30" as="geometry" />
        </mxCell>
        <mxCell id="0e1y4dWOLma1Uh2noj7M-7" value="MODELO" style="ellipse;whiteSpace=wrap;html=1;" vertex="1" parent="1">
          <mxGeometry x="70" y="230" width="120" height="30" as="geometry" />
        </mxCell>
        <mxCell id="0e1y4dWOLma1Uh2noj7M-8" value="IDCAM" style="ellipse;whiteSpace=wrap;html=1;" vertex="1" parent="1">
          <mxGeometry x="70" y="330" width="120" height="30" as="geometry" />
        </mxCell>
        <mxCell id="0e1y4dWOLma1Uh2noj7M-9" value="" style="endArrow=none;html=1;rounded=0;entryX=0;entryY=1;entryDx=0;entryDy=0;" edge="1" parent="1" target="0e1y4dWOLma1Uh2noj7M-2">
          <mxGeometry width="50" height="50" relative="1" as="geometry">
            <mxPoint x="20" y="350" as="sourcePoint" />
            <mxPoint x="450" y="300" as="targetPoint" />
            <Array as="points">
              <mxPoint x="20" y="210" />
            </Array>
          </mxGeometry>
        </mxCell>
        <mxCell id="0e1y4dWOLma1Uh2noj7M-12" value="" style="endArrow=classic;html=1;rounded=0;" edge="1" parent="1">
          <mxGeometry width="50" height="50" relative="1" as="geometry">
            <mxPoint x="20" y="144.5" as="sourcePoint" />
            <mxPoint x="70" y="144.5" as="targetPoint" />
          </mxGeometry>
        </mxCell>
        <mxCell id="0e1y4dWOLma1Uh2noj7M-13" value="" style="endArrow=classic;html=1;rounded=0;" edge="1" parent="1">
          <mxGeometry width="50" height="50" relative="1" as="geometry">
            <mxPoint x="20" y="194.5" as="sourcePoint" />
            <mxPoint x="70" y="194.5" as="targetPoint" />
          </mxGeometry>
        </mxCell>
        <mxCell id="0e1y4dWOLma1Uh2noj7M-14" value="" style="endArrow=classic;html=1;rounded=0;" edge="1" parent="1">
          <mxGeometry width="50" height="50" relative="1" as="geometry">
            <mxPoint x="20" y="244.5" as="sourcePoint" />
            <mxPoint x="70" y="244.5" as="targetPoint" />
          </mxGeometry>
        </mxCell>
        <mxCell id="0e1y4dWOLma1Uh2noj7M-16" value="" style="endArrow=classic;html=1;rounded=0;" edge="1" parent="1">
          <mxGeometry width="50" height="50" relative="1" as="geometry">
            <mxPoint x="20" y="294.5" as="sourcePoint" />
            <mxPoint x="70" y="294.5" as="targetPoint" />
          </mxGeometry>
        </mxCell>
        <mxCell id="0e1y4dWOLma1Uh2noj7M-18" value="" style="endArrow=classic;html=1;rounded=0;" edge="1" parent="1">
          <mxGeometry width="50" height="50" relative="1" as="geometry">
            <mxPoint x="20" y="344.5" as="sourcePoint" />
            <mxPoint x="70" y="344.5" as="targetPoint" />
          </mxGeometry>
        </mxCell>
        <mxCell id="0e1y4dWOLma1Uh2noj7M-20" value="" style="endArrow=none;html=1;rounded=0;exitX=1;exitY=0.5;exitDx=0;exitDy=0;" edge="1" parent="1" source="0e1y4dWOLma1Uh2noj7M-2">
          <mxGeometry width="50" height="50" relative="1" as="geometry">
            <mxPoint x="290" y="79.5" as="sourcePoint" />
            <mxPoint x="340" y="79.5" as="targetPoint" />
          </mxGeometry>
        </mxCell>
        <mxCell id="0e1y4dWOLma1Uh2noj7M-21" value="" style="endArrow=none;html=1;rounded=0;exitX=1;exitY=0.5;exitDx=0;exitDy=0;" edge="1" parent="1">
          <mxGeometry width="50" height="50" relative="1" as="geometry">
            <mxPoint x="500" y="80" as="sourcePoint" />
            <mxPoint x="650" y="79.5" as="targetPoint" />
          </mxGeometry>
        </mxCell>
        <mxCell id="0e1y4dWOLma1Uh2noj7M-23" value="PATENTE" style="ellipse;whiteSpace=wrap;html=1;" vertex="1" parent="1">
          <mxGeometry x="650" y="130" width="120" height="30" as="geometry" />
        </mxCell>
        <mxCell id="0e1y4dWOLma1Uh2noj7M-24" value="FECHA" style="ellipse;whiteSpace=wrap;html=1;" vertex="1" parent="1">
          <mxGeometry x="650" y="180" width="120" height="30" as="geometry" />
        </mxCell>
        <mxCell id="0e1y4dWOLma1Uh2noj7M-25" value="VELOCIDAD" style="ellipse;whiteSpace=wrap;html=1;" vertex="1" parent="1">
          <mxGeometry x="650" y="230" width="120" height="30" as="geometry" />
        </mxCell>
        <mxCell id="0e1y4dWOLma1Uh2noj7M-27" value="" style="endArrow=none;html=1;rounded=0;entryX=1;entryY=1;entryDx=0;entryDy=0;" edge="1" parent="1" target="0e1y4dWOLma1Uh2noj7M-3">
          <mxGeometry width="50" height="50" relative="1" as="geometry">
            <mxPoint x="820" y="250" as="sourcePoint" />
            <mxPoint x="820" y="150" as="targetPoint" />
          </mxGeometry>
        </mxCell>
        <mxCell id="0e1y4dWOLma1Uh2noj7M-28" value="" style="endArrow=classic;html=1;rounded=0;" edge="1" parent="1">
          <mxGeometry width="50" height="50" relative="1" as="geometry">
            <mxPoint x="820" y="244.5" as="sourcePoint" />
            <mxPoint x="770" y="244.5" as="targetPoint" />
          </mxGeometry>
        </mxCell>
        <mxCell id="0e1y4dWOLma1Uh2noj7M-29" value="" style="endArrow=classic;html=1;rounded=0;" edge="1" parent="1">
          <mxGeometry width="50" height="50" relative="1" as="geometry">
            <mxPoint x="820" y="194.5" as="sourcePoint" />
            <mxPoint x="770" y="194.5" as="targetPoint" />
          </mxGeometry>
        </mxCell>
        <mxCell id="0e1y4dWOLma1Uh2noj7M-30" value="" style="endArrow=classic;html=1;rounded=0;" edge="1" parent="1">
          <mxGeometry width="50" height="50" relative="1" as="geometry">
            <mxPoint x="820" y="144.5" as="sourcePoint" />
            <mxPoint x="770" y="144.5" as="targetPoint" />
          </mxGeometry>
        </mxCell>
        <mxCell id="0e1y4dWOLma1Uh2noj7M-31" value="&lt;b&gt;1..1&lt;/b&gt;" style="text;html=1;align=center;verticalAlign=middle;resizable=0;points=[];autosize=1;strokeColor=none;fillColor=none;" vertex="1" parent="1">
          <mxGeometry x="190" y="48" width="40" height="30" as="geometry" />
        </mxCell>
        <mxCell id="0e1y4dWOLma1Uh2noj7M-32" value="&lt;b&gt;1..*&lt;/b&gt;" style="text;html=1;align=center;verticalAlign=middle;resizable=0;points=[];autosize=1;strokeColor=none;fillColor=none;" vertex="1" parent="1">
          <mxGeometry x="600" y="48" width="40" height="30" as="geometry" />
        </mxCell>
      </root>
    </mxGraphModel>
  </diagram>
</mxfile>
